<?xml version="1.0" standalone="no"?>
<!DOCTYPE svg PUBLIC "-//W3C//DTD SVG 20010904//EN"
 "http://www.w3.org/TR/2001/REC-SVG-20010904/DTD/svg10.dtd">
<svg version="1.0" xmlns="http://www.w3.org/2000/svg"
 width="113.000000pt" height="113.000000pt" viewBox="0 0 113.000000 113.000000"
 preserveAspectRatio="xMidYMid meet">
<metadata>
Created by potrace 1.10, written by Peter Selinger 2001-2011
</metadata>
<g transform="translate(0.000000,113.000000) scale(0.100000,-0.100000)"
fill="#228b22" stroke="none">
<path d="M284 1046 c-17 -13 -19 -30 -22 -176 -3 -135 -1 -165 13 -186 l15
-24 300 0 c298 0 299 0 314 22 13 18 16 54 16 180 0 145 -2 160 -20 178 -19
19 -33 20 -308 20 -233 0 -292 -3 -308 -14z m76 -26 c0 -13 -37 -50 -50 -50
-11 0 -14 43 -3 53 10 11 53 8 53 -3z m515 -2 c13 -38 10 -53 -10 -50 -25 4
-31 11 -40 40 -5 19 -3 22 20 22 14 0 28 -6 30 -12z m-75 -25 c0 -23 29 -53
52 -53 16 0 18 -9 18 -91 0 -60 -3 -88 -10 -84 -17 10 -60 -23 -60 -45 0 -19
-7 -20 -210 -20 -190 0 -210 2 -210 17 0 23 -29 53 -52 53 -16 0 -18 9 -18 90
0 73 3 88 14 84 17 -6 56 29 56 51 0 13 30 15 210 15 190 0 210 -2 210 -17z
m-447 -284 c4 -15 0 -19 -23 -19 -22 0 -29 5 -32 25 -3 13 -3 27 -1 29 10 9
51 -17 56 -35z m527 6 c0 -21 -5 -25 -30 -25 -16 0 -30 3 -30 8 1 18 26 38 53
41 4 1 7 -10 7 -24z"/>
<path d="M528 964 c-61 -32 -78 -129 -32 -183 71 -85 214 -38 214 70 0 101
-96 160 -182 113z m77 -41 c-14 -13 -37 -23 -50 -23 -13 0 -31 -10 -39 -22
-16 -22 -16 -22 -16 -2 0 21 32 57 60 67 8 3 28 5 43 4 l29 -1 -27 -23z m38
-27 c3 -7 -12 -30 -34 -52 l-39 -38 -22 21 c-18 19 -19 24 -8 38 12 15 14 15
22 1 8 -14 13 -12 34 14 28 33 39 37 47 16z m37 -46 c0 -73 -102 -109 -155
-55 -14 13 -25 29 -25 36 0 6 13 -3 29 -20 16 -17 36 -31 44 -31 8 0 34 22 58
49 24 27 45 49 47 50 1 1 2 -13 2 -29z"/>
<path d="M387 884 c-13 -13 -7 -52 8 -58 27 -10 46 5 43 33 -3 26 -35 41 -51
25z"/>
<path d="M747 884 c-13 -13 -7 -52 8 -58 27 -10 46 5 43 33 -3 26 -35 41 -51
25z"/>
<path d="M273 609 c-6 -6 -9 -18 -6 -25 8 -21 638 -21 646 0 13 33 -14 36
-323 36 -213 0 -309 -3 -317 -11z"/>
<path d="M267 516 c-13 -33 14 -36 323 -36 309 0 336 3 323 36 -8 21 -638 21
-646 0z"/>
<path d="M852 437 c-43 -16 -50 -22 -37 -29 17 -10 125 28 125 44 0 13 -30 8
-88 -15z"/>
<path d="M918 398 c-55 -25 -68 -36 -68 -54 0 -21 3 -20 74 22 40 24 78 44 84
44 6 0 14 5 17 10 12 20 -41 9 -107 -22z"/>
<path d="M241 394 c-31 -11 -46 -13 -54 -5 -12 12 -107 15 -145 4 -34 -8 -39
-34 -32 -164 7 -154 15 -164 115 -154 38 4 77 13 85 20 13 12 55 12 261 3
l245 -11 53 26 c109 55 341 198 351 216 12 23 4 48 -20 61 -20 10 -119 -33
-215 -95 -67 -43 -117 -54 -271 -63 -105 -7 -138 -2 -120 16 4 3 62 11 130 18
68 6 133 15 145 19 29 9 38 51 16 75 -16 18 -32 20 -144 20 -74 1 -151 7 -186
15 -77 19 -158 18 -214 -1z m194 -29 c41 -9 123 -15 197 -15 122 0 154 -8 131
-31 -5 -5 -66 -15 -136 -22 -106 -11 -131 -17 -149 -34 -20 -21 -20 -23 -4
-47 19 -30 32 -31 187 -16 134 14 171 24 236 66 69 44 168 94 187 94 8 0 17
-4 20 -8 5 -9 -316 -202 -369 -222 -22 -9 -91 -9 -274 0 -217 10 -245 10 -260
-4 -28 -26 -40 -20 -34 17 4 28 1 37 -22 55 -21 17 -31 19 -50 10 -33 -15 -50
-50 -36 -76 15 -29 14 -37 -4 -22 -10 8 -15 31 -16 64 0 28 -4 76 -8 106 -5
30 -6 60 -4 66 6 17 128 27 151 13 14 -9 32 -8 78 4 75 20 93 20 179 2z m-301
-191 c20 -19 20 -28 1 -44 -33 -27 -74 17 -43 48 16 16 23 15 42 -4z"/>
</g>
</svg>
