<?xml version="1.0" standalone="no"?>
<!DOCTYPE svg PUBLIC "-//W3C//DTD SVG 20010904//EN"
 "http://www.w3.org/TR/2001/REC-SVG-20010904/DTD/svg10.dtd">
<svg version="1.0" xmlns="http://www.w3.org/2000/svg"
 width="50.000000pt" height="50.000000pt" viewBox="0 0 50.000000 50.000000"
 preserveAspectRatio="xMidYMid meet">
<metadata>
Created by potrace 1.10, written by Peter Selinger 2001-2011
</metadata>
<g transform="translate(0.000000,50.000000) scale(0.100000,-0.100000)"
fill="#000000" stroke="none">
<path d="M102 398 c-10 -10 2 -27 55 -80 l67 -68 -67 -68 c-53 -53 -65 -70
-55 -80 10 -10 27 2 80 55 l68 67 68 -67 c53 -53 70 -65 80 -55 10 10 -2 27
-55 80 l-67 68 67 68 c53 53 65 70 55 80 -10 10 -27 -2 -80 -55 l-68 -67 -68
67 c-53 53 -70 65 -80 55z"/>
</g>
</svg>
