<?xml version="1.0" standalone="no"?>
<!DOCTYPE svg PUBLIC "-//W3C//DTD SVG 20010904//EN"
 "http://www.w3.org/TR/2001/REC-SVG-20010904/DTD/svg10.dtd">
<svg version="1.0" xmlns="http://www.w3.org/2000/svg"
 width="79.000000pt" height="79.000000pt" viewBox="0 0 79.000000 79.000000"
 preserveAspectRatio="xMidYMid meet">
<metadata>
Created by potrace 1.10, written by Peter Selinger 2001-2011
</metadata>
<g transform="translate(0.000000,79.000000) scale(0.100000,-0.100000)"
fill="#000000" stroke="none">
<path d="M60 783 c-8 -3 -23 -12 -32 -21 -17 -14 -18 -43 -18 -349 0 -321 1
-334 20 -353 20 -20 31 -20 303 -18 274 3 282 4 282 23 0 19 -8 20 -275 25
l-275 5 -3 309 c-1 170 1 313 6 318 4 4 122 8 262 8 l255 1 2 -161 2 -162 25
-13 26 -14 0 183 c0 162 -2 185 -17 198 -21 18 -68 35 -60 21 6 -9 -240 -23
-410 -23 -60 0 -71 3 -67 15 6 15 0 17 -26 8z"/>
<path d="M119 618 c0 -2 -2 -15 -3 -30 l-2 -28 178 0 178 0 0 30 0 30 -175 0
c-96 0 -175 -1 -176 -2z"/>
<path d="M119 455 c0 0 -2 -12 -3 -27 l-2 -28 178 0 178 0 0 28 0 27 -175 0
c-96 0 -175 0 -176 0z"/>
<path d="M468 354 c-34 -18 -58 -62 -58 -107 0 -77 85 -141 154 -117 29 10 33
8 101 -60 l71 -70 22 22 22 22 -70 71 c-69 69 -70 72 -59 103 24 71 -37 152
-114 152 -23 -1 -54 -7 -69 -16z m117 -59 c33 -32 31 -60 -5 -97 -25 -24 -36
-29 -58 -24 -36 9 -62 41 -62 77 0 64 78 92 125 44z m90 -182 c31 -35 55 -63
53 -63 -6 0 -128 120 -128 126 0 13 20 -4 75 -63z"/>
</g>
</svg>
