<?xml version="1.0" standalone="no"?>
<!DOCTYPE svg PUBLIC "-//W3C//DTD SVG 20010904//EN"
 "http://www.w3.org/TR/2001/REC-SVG-20010904/DTD/svg10.dtd">
<svg version="1.0" xmlns="http://www.w3.org/2000/svg"
 width="50.000000pt" height="50.000000pt" viewBox="0 0 50.000000 50.000000"
 preserveAspectRatio="xMidYMid meet">
<metadata>
Created by potrace 1.10, written by Peter Selinger 2001-2011
</metadata>
<g transform="translate(0.000000,50.000000) scale(0.100000,-0.100000)"
fill="#000000" stroke="none">
<path d="M215 310 c-128 -126 -133 -133 -144 -187 -6 -31 -9 -58 -8 -60 2 -1
29 2 60 8 54 11 61 16 187 144 85 87 130 140 130 154 0 12 -11 33 -25 46 -13
14 -34 25 -46 25 -14 0 -67 -45 -154 -130z m188 78 c8 -12 7 -21 -3 -32 -12
-15 -15 -15 -36 5 -19 17 -21 25 -12 36 14 17 38 13 51 -9z m-58 -48 c19 -21
18 -22 -75 -115 l-93 -94 -23 22 -23 22 92 93 c50 50 94 92 98 92 3 0 14 -9
24 -20z m-201 -231 c-10 -17 -44 -10 -44 9 0 10 3 22 7 25 9 9 44 -23 37 -34z"/>
</g>
</svg>
