<?xml version="1.0" standalone="no"?>
<!DOCTYPE svg PUBLIC "-//W3C//DTD SVG 20010904//EN"
 "http://www.w3.org/TR/2001/REC-SVG-20010904/DTD/svg10.dtd">
<svg version="1.0" xmlns="http://www.w3.org/2000/svg"
 width="50.000000pt" height="50.000000pt" viewBox="0 0 50.000000 50.000000"
 preserveAspectRatio="xMidYMid meet">
<metadata>
Created by potrace 1.10, written by Peter Selinger 2001-2011
</metadata>
<g transform="translate(0.000000,50.000000) scale(0.100000,-0.100000)"
fill="#000000" stroke="none">
<path d="M143 352 c-61 -63 -99 -110 -96 -119 4 -10 9 -11 19 -2 12 10 14 -3
14 -80 l0 -91 70 0 70 0 0 80 0 80 30 0 30 0 0 -80 0 -80 70 0 70 0 0 91 c0
77 2 90 14 80 10 -9 15 -8 19 2 3 9 -36 56 -100 121 -58 58 -106 105 -107 105
0 -1 -47 -49 -103 -107z m179 -9 l68 -67 0 -93 0 -93 -40 0 -40 0 0 80 0 80
-60 0 -60 0 0 -80 0 -80 -40 0 -40 0 0 92 0 92 67 68 c37 38 70 68 72 68 3 0
36 -30 73 -67z"/>
</g>
</svg>
