<?xml version="1.0" standalone="no"?>
<!DOCTYPE svg PUBLIC "-//W3C//DTD SVG 20010904//EN"
 "http://www.w3.org/TR/2001/REC-SVG-20010904/DTD/svg10.dtd">
<svg version="1.0" xmlns="http://www.w3.org/2000/svg"
 width="225.000000pt" height="225.000000pt" viewBox="0 0 225.000000 225.000000"
 preserveAspectRatio="xMidYMid meet">
<metadata>
Created by potrace 1.10, written by Peter Selinger 2001-2011
</metadata>
<g transform="translate(0.000000,225.000000) scale(0.050000,-0.050000)"
fill="#228b22" stroke="none">
<path d="M2861 4257 c-838 -125 -1284 -1069 -847 -1793 477 -788 1647 -761
2071 48 454 868 -262 1889 -1224 1745z m487 -415 c753 -330 644 -1412 -158
-1575 -767 -157 -1287 771 -766 1365 216 246 628 339 924 210z"/>
<path d="M2960 3648 c0 -75 -5 -84 -57 -94 -313 -63 -278 -431 52 -554 138
-52 185 -90 185 -152 0 -88 -166 -116 -330 -57 -44 15 -82 29 -84 29 -7 0 -46
-148 -46 -174 0 -25 102 -59 210 -70 56 -6 60 -11 53 -81 l-6 -75 90 0 89 0
-10 78 c-10 74 -8 78 53 92 275 60 315 449 56 551 -36 14 -112 47 -170 74
-229 105 -51 255 187 156 76 -32 71 -37 105 94 21 79 -33 115 -172 115 -39 0
-45 11 -45 75 0 75 -1 76 -80 76 l-80 0 0 -83z"/>
<path d="M222 1965 c-129 -484 -130 -1135 -3 -1600 l23 -86 494 6 494 5 21
100 21 100 117 -7 c78 -5 239 -50 489 -137 425 -149 464 -153 982 -94 758 85
835 141 1369 995 196 313 196 308 37 386 -266 131 -584 78 -844 -140 l-129
-108 -49 58 c-62 75 -98 92 -453 227 -162 61 -372 146 -468 189 -306 137 -706
164 -958 66 l-105 -41 -13 78 -12 78 -497 0 -496 0 -20 -75z m846 -124 c122
-28 147 -64 106 -151 -51 -106 -50 -836 1 -977 l34 -97 -74 -68 -74 -68 -318
0 c-277 0 -321 4 -348 35 -107 122 -106 1199 2 1309 38 38 525 51 671 17z
m1173 -216 c126 -55 252 -106 279 -115 105 -32 511 -195 535 -214 37 -31 30
-97 -17 -174 l-41 -68 -173 13 c-96 7 -230 24 -299 39 -194 42 -315 -59 -208
-173 93 -98 668 -153 796 -75 65 40 167 160 167 198 0 11 29 42 65 66 36 25
131 99 212 164 179 143 248 174 392 174 140 0 143 16 -67 -296 -410 -608 -432
-620 -1244 -686 l-312 -25 -388 133 c-295 102 -414 134 -498 134 l-110 0 0
468 0 469 120 34 c66 18 129 37 140 41 110 41 431 -12 651 -107z"/>
</g>
</svg>
