<?xml version="1.0" standalone="no"?>
<!DOCTYPE svg PUBLIC "-//W3C//DTD SVG 20010904//EN"
 "http://www.w3.org/TR/2001/REC-SVG-20010904/DTD/svg10.dtd">
<svg version="1.0" xmlns="http://www.w3.org/2000/svg"
 width="64.000000pt" height="64.000000pt" viewBox="0 0 64.000000 64.000000"
 preserveAspectRatio="xMidYMid meet">
<metadata>
Created by potrace 1.10, written by Peter Selinger 2001-2011
</metadata>
<g transform="translate(0.000000,64.000000) scale(0.100000,-0.100000)"
fill="#000000" stroke="none">
<path d="M120 550 l0 -90 -48 0 c-26 0 -53 -5 -60 -12 -15 -15 -17 -295 -2
-318 5 -9 26 -14 57 -15 l48 0 3 -57 3 -58 199 0 199 0 3 58 3 57 48 0 c31 1
52 6 57 15 15 23 13 303 -2 318 -7 7 -34 12 -60 12 l-48 0 0 90 0 90 -200 0
-200 0 0 -90z m380 -12 l0 -78 -180 0 -180 0 0 78 0 77 180 0 180 0 0 -77z
m110 -108 c0 -5 1 -72 1 -147 l0 -138 -46 -3 -47 -3 4 70 4 71 -206 0 -206 0
4 -71 4 -70 -47 3 -46 3 0 138 c0 75 1 142 1 147 0 6 104 10 290 10 186 0 290
-4 290 -10z m-110 -287 l0 -118 -180 0 -180 0 0 118 0 117 180 0 180 0 0 -117z"/>
<path d="M530 385 c-15 -18 -5 -35 20 -35 10 0 22 5 25 10 7 11 -12 40 -25 40
-4 0 -13 -7 -20 -15z"/>
<path d="M187 204 c-19 -20 4 -24 134 -24 108 0 140 3 137 13 -5 13 -258 24
-271 11z"/>
<path d="M180 140 c0 -6 45 -10 115 -10 70 0 115 4 115 10 0 6 -45 10 -115 10
-70 0 -115 -4 -115 -10z"/>
<path d="M180 90 c0 -6 53 -10 140 -10 87 0 140 4 140 10 0 6 -53 10 -140 10
-87 0 -140 -4 -140 -10z"/>
</g>
</svg>
