<?xml version="1.0" standalone="no"?>
<!DOCTYPE svg PUBLIC "-//W3C//DTD SVG 20010904//EN"
 "http://www.w3.org/TR/2001/REC-SVG-20010904/DTD/svg10.dtd">
<svg version="1.0" xmlns="http://www.w3.org/2000/svg"
 width="50.000000pt" height="50.000000pt" viewBox="0 0 50.000000 50.000000"
 preserveAspectRatio="xMidYMid meet">
<metadata>
Created by potrace 1.10, written by Peter Selinger 2001-2011
</metadata>
<g transform="translate(0.000000,50.000000) scale(0.100000,-0.100000)"
fill="#000000" stroke="none">
<path d="M185 426 c-60 -22 -135 -116 -92 -116 6 0 21 13 31 29 45 66 139 85
209 42 45 -27 48 -45 7 -39 -24 4 -30 1 -30 -14 0 -15 8 -18 55 -18 l55 0 0
55 c0 42 -3 55 -15 55 -8 0 -15 -9 -15 -20 0 -19 -2 -19 -38 5 -48 31 -114 40
-167 21z"/>
<path d="M80 135 c0 -42 3 -55 15 -55 8 0 15 9 15 20 0 20 1 19 38 -4 79 -52
170 -42 235 25 37 40 48 69 25 69 -7 0 -22 -13 -32 -29 -45 -66 -139 -85 -209
-42 -45 27 -48 45 -7 39 24 -4 30 -1 30 14 0 15 -8 18 -55 18 l-55 0 0 -55z"/>
</g>
</svg>
